<?xml version="1.0" encoding="UTF-8" standalone="no"?>
<!-- Created with Inkscape (http://www.inkscape.org/) -->

<svg
   xmlns:dc="http://purl.org/dc/elements/1.1/"
   xmlns:cc="http://creativecommons.org/ns#"
   xmlns:rdf="http://www.w3.org/1999/02/22-rdf-syntax-ns#"
   xmlns:svg="http://www.w3.org/2000/svg"
   xmlns="http://www.w3.org/2000/svg"
   xmlns:xlink="http://www.w3.org/1999/xlink"
   version="1.1"
   width="267.96875"
   height="267.96875"
   id="svg2"
   xml:space="preserve"><metadata
     id="metadata8"><rdf:RDF><cc:Work
         rdf:about=""><dc:format>image/svg+xml</dc:format><dc:type
           rdf:resource="http://purl.org/dc/dcmitype/StillImage" /><dc:title></dc:title></cc:Work></rdf:RDF></metadata><defs
     id="defs6"><clipPath
       id="clipPath18"><path
         d="M 0,501.602 0,0 l 1863.85,0 0,501.602 -1863.85,0 z"
         id="path20" /></clipPath><linearGradient
       x1="-1807.2036"
       y1="125.8584"
       x2="-1807.2036"
       y2="0.00048828119"
       id="linearGradient3718"
       xlink:href="#SVGID_1_"
       gradientUnits="userSpaceOnUse"
       gradientTransform="translate(1918.4485,-146.55553)" /><linearGradient
       x1="-1807.2036"
       y1="125.8584"
       x2="-1807.2036"
       y2="0.00048828119"
       id="SVGID_1_"
       gradientUnits="userSpaceOnUse"
       gradientTransform="translate(1915.9785,0)"><stop
         id="stop237"
         style="stop-color:#1b3967;stop-opacity:1"
         offset="0.011" /><stop
         id="stop239"
         style="stop-color:#13b5ea;stop-opacity:1"
         offset="0.46700001" /><stop
         id="stop241"
         style="stop-color:#002b5c;stop-opacity:1"
         offset="0.99449998" /></linearGradient><linearGradient
       x1="-1073.228"
       y1="126.8516"
       x2="-1073.228"
       y2="1.2789771e-13"
       id="linearGradient3720"
       xlink:href="#SVGID_2_"
       gradientUnits="userSpaceOnUse"
       gradientTransform="matrix(-1,0,0,1,-1005.7214,-146.55553)" /><linearGradient
       x1="-1073.228"
       y1="126.8516"
       x2="-1073.228"
       y2="1.2789771e-13"
       id="SVGID_2_"
       gradientUnits="userSpaceOnUse"
       gradientTransform="matrix(-1,0,0,1,-1008.1914,0)"><stop
         id="stop248"
         style="stop-color:#1b3967;stop-opacity:1"
         offset="0.011" /><stop
         id="stop250"
         style="stop-color:#13b5ea;stop-opacity:1"
         offset="0.46700001" /><stop
         id="stop252"
         style="stop-color:#002b5c;stop-opacity:1"
         offset="0.99449998" /></linearGradient><linearGradient
       x1="-1807.2036"
       y1="125.8584"
       x2="-1807.2036"
       y2="0.00048828119"
       id="linearGradient3246"
       xlink:href="#SVGID_1_"
       gradientUnits="userSpaceOnUse"
       gradientTransform="translate(1918.4485,-146.55553)" /><linearGradient
       x1="-1073.228"
       y1="126.8516"
       x2="-1073.228"
       y2="1.2789771e-13"
       id="linearGradient3248"
       xlink:href="#SVGID_2_"
       gradientUnits="userSpaceOnUse"
       gradientTransform="matrix(-1,0,0,1,-1005.7214,-146.55553)" /><linearGradient
       x1="-1807.2036"
       y1="125.8584"
       x2="-1807.2036"
       y2="0.00048828119"
       id="linearGradient3718-8"
       xlink:href="#SVGID_1_-1"
       gradientUnits="userSpaceOnUse"
       gradientTransform="translate(1918.4485,-146.55553)" /><linearGradient
       x1="-1807.2036"
       y1="125.8584"
       x2="-1807.2036"
       y2="0.00048828119"
       id="SVGID_1_-1"
       gradientUnits="userSpaceOnUse"
       gradientTransform="translate(1915.9785,0)"><stop
         id="stop237-2"
         style="stop-color:#1b3967;stop-opacity:1"
         offset="0.011" /><stop
         id="stop239-0"
         style="stop-color:#13b5ea;stop-opacity:1"
         offset="0.46700001" /><stop
         id="stop241-8"
         style="stop-color:#002b5c;stop-opacity:1"
         offset="0.99449998" /></linearGradient><linearGradient
       x1="-1073.228"
       y1="126.8516"
       x2="-1073.228"
       y2="1.2789771e-13"
       id="linearGradient3720-1"
       xlink:href="#SVGID_2_-7"
       gradientUnits="userSpaceOnUse"
       gradientTransform="matrix(-1,0,0,1,-1005.7214,-146.55553)" /><linearGradient
       x1="-1073.228"
       y1="126.8516"
       x2="-1073.228"
       y2="1.2789771e-13"
       id="SVGID_2_-7"
       gradientUnits="userSpaceOnUse"
       gradientTransform="matrix(-1,0,0,1,-1008.1914,0)"><stop
         id="stop248-4"
         style="stop-color:#1b3967;stop-opacity:1"
         offset="0.011" /><stop
         id="stop250-0"
         style="stop-color:#13b5ea;stop-opacity:1"
         offset="0.46700001" /><stop
         id="stop252-6"
         style="stop-color:#002b5c;stop-opacity:1"
         offset="0.99449998" /></linearGradient></defs><path
     d="m 69.4375,200.25 -7.34375,4.25 c -0.639064,0.36831 -1.03125,1.04422 -1.03125,1.78125 l 0,3.28125 5.65625,-3.25 c 0.289946,-0.16759 0.647554,-0.16759 0.9375,0 l 7.78125,4.46875 c 0.29045,0.16741 0.46875,0.47702 0.46875,0.8125 l 0,8.96875 c 0,0.33521 -0.178804,0.64465 -0.46875,0.8125 l -7.78125,4.5 c -0.29045,0.16761 -0.64705,0.16761 -0.9375,0 l -5.65625,-3.28125 0,3.40625 c 0,0.73756 0.392592,1.44319 1.03125,1.8125 l 6.9375,4 10.21875,-5.90625 c 0.448736,-0.25936 1.020014,-0.25936 1.46875,0 l 10.46875,6.03125 7.15625,-4.125 C 98.98172,227.44319 99.375,226.73756 99.375,226 l 0,-3.53125 -5.6875,3.3125 c -0.29045,0.16761 -0.64705,0.16761 -0.9375,0 l -7.78125,-4.5 C 84.678486,221.1134 84.5,220.80396 84.5,220.46875 l 0,-8.96875 c 0,-0.33499 0.1783,-0.64511 0.46875,-0.8125 L 92.75,206.21875 c 0.289946,-0.16759 0.647554,-0.16759 0.9375,0 l 5.6875,3.28125 0,-3.21875 c 0,-0.73812 -0.39219,-1.41294 -1.03125,-1.78125 L 91.3125,200.4375 81.25,206.25 c -0.449514,0.2594 -1.019236,0.2594 -1.46875,0 l -10.34375,-6 z"
     id="path3220"
     style="fill:#404137;fill-opacity:1;fill-rule:evenodd;stroke:none" /><path
     d="m 92.89634,209.4049 c 0.195335,-0.11288 0.436243,-0.11288 0.631578,0 l 5.232712,3.0196 c 0.19567,0.11276 0.31613,0.32137 0.31613,0.54737 l 0,6.04377 c 0,0.22584 -0.12046,0.4343 -0.31579,0.54738 l -5.232712,3.02204 c -0.195675,0.11289 -0.436583,0.11289 -0.632258,0 l -5.231365,-3.02204 c -0.19555,-0.11302 -0.316004,-0.32154 -0.316004,-0.54738 l 0,-6.04409 c 0,-0.22568 0.120451,-0.43428 0.316129,-0.54705 l 5.23158,-3.0196"
     id="path3297"
     style="fill:#83cd29;fill-opacity:1;fill-rule:evenodd;stroke:none" /><path
     d="m 66.862452,209.4049 c 0.195336,-0.11288 0.436243,-0.11288 0.631578,0 l 5.232711,3.0196 c 0.195673,0.11276 0.31613,0.32137 0.31613,0.54737 l 0,6.04377 c 0,0.22584 -0.120457,0.4343 -0.315789,0.54738 l -5.232712,3.02204 c -0.195675,0.11289 -0.436582,0.11289 -0.632257,0 l -5.231366,-3.02204 c -0.19555,-0.11302 -0.316004,-0.32154 -0.316004,-0.54738 l 0,-6.04409 c 0,-0.22568 0.120452,-0.43428 0.316129,-0.54705 l 5.23158,-3.0196"
     id="path3299"
     style="fill:#83cd29;fill-opacity:1;fill-rule:evenodd;stroke:none" /><path
     d="m 162.5602,210.72225 c 0,-0.29871 0.15985,-0.57564 0.41941,-0.7241 l 9.51776,-5.48699 c 0.25871,-0.14847 0.5774,-0.14847 0.8361,0 l 9.51866,5.48699 c 0.2587,0.14846 0.4185,0.42539 0.4185,0.7241 l 0,10.99109 c 0,0.29782 -0.15985,0.57475 -0.41761,0.72499 l -9.51864,5.49721 c -0.25961,0.15024 -0.5783,0.15024 -0.83789,0 l -9.51866,-5.49721 c -0.25782,-0.15024 -0.41763,-0.42717 -0.41763,-0.72499 z m -1.66503,45.30991 c 0.2915,0.16263 0.64738,0.15875 0.9355,-0.0102 0.28763,-0.16887 0.46438,-0.478 0.46438,-0.8115 l 0,-23.91938 c 0,-0.23487 0.126,-0.45262 0.32913,-0.57037 0.20362,-0.11813 0.455,-0.11813 0.65912,0 l 8.65388,5.124 c 0.582,0.3355 1.29875,0.335 1.88087,-3.8e-4 l 15.59225,-8.99867 c 0.58299,-0.33638 0.94137,-0.9575 0.94137,-1.63037 l 0,-18.00045 c 0,-0.67237 -0.35838,-1.29395 -0.94087,-1.63087 l -15.59137,-9.00488 c -0.583,-0.33643 -1.30075,-0.33643 -1.88376,0 l -15.59412,9.00488 c -0.58251,0.33692 -0.94126,0.9585 -0.94126,1.63087 l 0,44.87057 c 0,0.68262 0.37,1.3115 0.96625,1.6445 l 4.52864,2.30225"
     id="path3072"
     style="fill:#404137;fill-opacity:1;fill-rule:evenodd;stroke:none" /><path
     d="m 135.63417,201.44829 c -0.22578,0 -0.45157,0.0692 -0.65625,0.1875 -9.07917,5.20649 -1.6e-4,-0.005 -9.09375,5.21875 -0.41008,0.23664 -0.90242,0.23664 -1.3125,0 -9.09466,-5.20894 0.0107,0.003 -9.09375,-5.21875 -0.40056,-0.23151 -0.87722,-0.22153 -1.28125,0 -5.50412,3.15666 0.0361,-0.0166 -5.5,3.15625 -0.583,0.336 -0.9375,0.95262 -0.9375,1.625 l 0,18 c 0,0.67286 0.35487,1.28808 0.9375,1.625 l 4.25,2.46875 0,-20.21875 c 0.0185,-0.0198 0.0419,-0.0506 0.0625,-0.0625 l 1.65625,-0.96875 c 0.0217,-0.0125 0.0405,-0.0275 0.0625,-0.0312 0.009,-0.002 0.0218,0 0.0312,0 l 9.71875,5.625 c 0.4658,0.26879 1.03421,0.26879 1.5,0 l 9.59375,-5.5625 c 0.0309,-0.0179 0.0624,-0.0312 0.0937,-0.0312 0.0314,0 0.0628,0.0134 0.0937,0.0312 l 1.65625,0.96875 c 0.062,0.0357 0.0937,0.0846 0.0937,0.15625 l 0,1.09375 0,19 4.25,-2.46875 c 0.582,-0.33692 0.9375,-0.95215 0.9375,-1.625 l 0,-18 c 0,-0.67338 -0.3545,-1.289 -0.9375,-1.625 -5.5213,-3.17108 0.016,0.002 -5.5,-3.15625 -0.19757,-0.10833 -0.40895,-0.1875 -0.625,-0.1875 z"
     id="path3168"
     style="fill:#404137;fill-opacity:1;fill-rule:evenodd;stroke:none" /><path
     d="m 116.65158,211.95277 c -0.018,0.003 -0.0333,0.0153 -0.0511,0.0255 l -1.35281,0.79127 c -0.0169,0.01 -0.0359,0.0349 -0.0511,0.051 l 0,16.02958 c 0,0.38657 0.20129,0.75086 0.53602,0.94442 l 8.95921,5.18154 c 0.33495,0.19328 0.73709,0.19328 1.07204,0 l 8.95921,-5.18154 c 0.33437,-0.19356 0.53602,-0.55785 0.53602,-0.94442 l 0,-15.03411 0,-0.89337 c 0,-0.0585 -0.0259,-0.0985 -0.0766,-0.12762 l -1.35282,-0.79127 c -0.0253,-0.0146 -0.0509,-0.0255 -0.0766,-0.0255 -0.0256,0 -0.0513,0.011 -0.0766,0.0255 l -7.83611,4.54341 c -0.38046,0.21955 -0.84473,0.21955 -1.2252,0 l -7.93821,-4.59446 c -0.007,0 -0.0178,-0.002 -0.0255,0 z"
     id="path3174"
     style="fill:#83cd29;fill-opacity:1;fill-rule:evenodd;stroke:none" /><path
     d="m 209.0602,210.72225 c 0,-0.29871 0.15985,-0.57564 0.41941,-0.7241 l 9.51776,-5.48699 c 0.25871,-0.14847 0.5774,-0.14847 0.8361,0 l 9.51866,5.48699 c 0.2587,0.14846 0.4185,0.42539 0.4185,0.7241 l 0,10.99109 c 0,0.29782 -0.15985,0.57475 -0.41761,0.72499 l -9.51864,5.49721 c -0.25961,0.15024 -0.5783,0.15024 -0.83789,0 l -9.51866,-5.49721 c -0.25782,-0.15024 -0.41763,-0.42717 -0.41763,-0.72499 z m -1.66503,45.30991 c 0.2915,0.16263 0.64738,0.15875 0.9355,-0.0102 0.28763,-0.16887 0.46438,-0.478 0.46438,-0.8115 l 0,-23.91938 c 0,-0.23487 0.126,-0.45262 0.32913,-0.57037 0.20362,-0.11813 0.455,-0.11813 0.65912,0 l 8.65388,5.124 c 0.582,0.3355 1.29875,0.335 1.88087,-3.8e-4 l 15.59225,-8.99867 c 0.58299,-0.33638 0.94137,-0.9575 0.94137,-1.63037 l 0,-18.00045 c 0,-0.67237 -0.35838,-1.29395 -0.94087,-1.63087 l -15.59137,-9.00488 c -0.583,-0.33643 -1.30075,-0.33643 -1.88376,0 l -15.59412,9.00488 c -0.58251,0.33692 -0.94126,0.9585 -0.94126,1.63087 l 0,44.87057 c 0,0.68262 0.37,1.3115 0.96625,1.6445 l 4.52864,2.30225"
     id="path3256"
     style="fill:#404137;fill-opacity:1;fill-rule:evenodd;stroke:none" /><g
     transform="translate(-12.680745,7.4185)"
     id="g3258"><path
       d="m 86.935,157.62063 c 0,-0.67725 -0.35587,-1.29988 -0.94088,-1.63575 l -15.58587,-8.96975 c -0.26375,-0.15475 -0.559125,-0.23538 -0.8585,-0.2475 -0.02625,0 -0.139125,0 -0.161125,0 -0.297375,0.0121 -0.59325,0.0927 -0.86025,0.2475 l -15.585993,8.96975 C 52.361328,156.32075 52,156.94338 52,157.62063 l 0.03418,24.15281 c 0,0.33594 0.174316,0.64844 0.469726,0.81299 0.289552,0.17334 0.646973,0.17334 0.935544,0 l 9.262213,-5.30371 c 0.585937,-0.34814 0.942862,-0.96192 0.942862,-1.6333 l 0,-11.28417 c 0,-0.67287 0.35645,-1.29537 0.939975,-1.62987 l 3.943875,-2.2715 c 0.293875,-0.16988 0.615125,-0.25288 0.94325,-0.25288 0.321375,0 0.650875,0.083 0.936625,0.25288 l 3.94287,2.2715 c 0.5835,0.3345 0.94138,0.957 0.94138,1.62987 l 0,11.28417 c 0,0.67138 0.36125,1.28906 0.94337,1.6333 l 9.26026,5.30371 c 0.2905,0.17334 0.65275,0.17334 0.94087,0 0.28713,-0.16455 0.46775,-0.47705 0.46775,-0.81299 l 0.0302,-24.15281"
       id="path22"
       style="fill:#404137;fill-opacity:1;fill-rule:evenodd;stroke:none" /><path
       d="m 168.71388,170.19675 c 0,0.168 -0.0899,0.32375 -0.23588,0.40725 l -5.353,3.086 c -0.1455,0.0835 -0.32475,0.0835 -0.47025,0 l -5.3535,-3.086 c -0.1455,-0.0835 -0.23537,-0.23925 -0.23537,-0.40725 l 0,-6.18162 c 0,-0.1675 0.0899,-0.32325 0.23487,-0.40775 l 5.3535,-3.09175 c 0.146,-0.0845 0.32525,-0.0845 0.47125,0 l 5.3535,3.09175 c 0.145,0.0845 0.23488,0.24025 0.23488,0.40775 l 0,6.18162 z m 1.44625,-45.77775 c -0.2915,-0.16262 -0.64738,-0.15875 -0.9355,0.0102 -0.28763,0.16888 -0.46438,0.478 -0.46438,0.8115 l 0,23.91938 c 0,0.23487 -0.126,0.45262 -0.32913,0.57037 -0.20362,0.11813 -0.455,0.11813 -0.65912,0 l -3.90388,-2.249 c -0.582,-0.3355 -1.29875,-0.335 -1.88087,3.8e-4 L 146.395,156.4805 c -0.583,0.33638 -0.94138,0.9575 -0.94138,1.63038 l 0,18.00045 c 0,0.67236 0.35838,1.29395 0.94088,1.63086 l 15.59137,9.00488 c 0.583,0.33643 1.30075,0.33643 1.88376,0 l 15.59412,-9.00488 c 0.5825,-0.33691 0.94125,-0.9585 0.94125,-1.63086 l 0,-44.87058 c 0,-0.68262 -0.37,-1.3115 -0.96625,-1.6445 l -9.27863,-5.17725"
       id="path24"
       style="fill:#404137;fill-opacity:1;fill-rule:evenodd;stroke:none" /><path
       d="m 225.94375,163.8535 c 0.58,-0.33687 0.93625,-0.957 0.93625,-1.62787 l 0,-4.36188 c 0,-0.67087 -0.35625,-1.2915 -0.9375,-1.62837 l -15.49125,-8.99513 c -0.58375,-0.33837 -1.3025,-0.33887 -1.8875,-0.002 l -15.58625,8.99863 c -0.5825,0.33637 -0.94125,0.9575 -0.94125,1.63037 l 0,17.99555 c 0,0.67677 0.36375,1.30128 0.95125,1.63575 l 15.49,8.82617 c 0.57125,0.32617 1.27125,0.32959 1.84625,0.0103 l 9.36875,-5.20752 c 0.2975,-0.16504 0.4825,-0.47705 0.48375,-0.8164 0.002,-0.33936 -0.17875,-0.65381 -0.4725,-0.82276 l -15.685,-9.00291 c -0.29375,-0.1675 -0.47375,-0.4795 -0.47375,-0.81638 l 0,-5.63975 c 0,-0.33637 0.18,-0.64737 0.47125,-0.81537 l 4.8825,-2.8145 c 0.29,-0.16788 0.64875,-0.16788 0.94,0 l 4.88375,2.8145 c 0.29125,0.168 0.47125,0.479 0.47125,0.81537 l 0,4.43713 c 0,0.33687 0.18,0.64837 0.47125,0.81637 0.2925,0.16838 0.65125,0.167 0.9425,-0.002 l 9.33625,-5.42675"
       id="path26"
       style="fill:#404137;fill-opacity:1;fill-rule:evenodd;stroke:none" /><path
       d="m 115.28762,147.1435 c 0.582,-0.33637 1.29975,-0.33637 1.88175,0 l 15.59038,8.99663 c 0.583,0.336 0.94187,0.9575 0.94187,1.63087 l 0,18.00684 c 0,0.67285 -0.35887,1.29394 -0.94087,1.63085 l -15.59038,9.00391 c -0.583,0.33643 -1.30075,0.33643 -1.88375,0 l -15.58637,-9.00391 c -0.58262,-0.33691 -0.9415,-0.958 -0.9415,-1.63085 l 0,-18.00784 c 0,-0.67237 0.35888,-1.29387 0.94188,-1.62987 l 15.58699,-8.99663"
       id="path28"
       style="fill:#83cd29;fill-opacity:1;fill-rule:evenodd;stroke:none" /><path
       d="m 209.2775,163.01075 c 0.1125,-0.065 0.25,-0.065 0.36125,0 l 2.9925,1.72613 c 0.11125,0.0644 0.18,0.1835 0.18,0.31287 l 0,3.45463 c 0,0.12937 -0.0687,0.2485 -0.18,0.313 l -2.9925,1.72612 c -0.11125,0.0649 -0.24875,0.0649 -0.36125,0 l -2.98875,-1.72612 c -0.1125,-0.0645 -0.18125,-0.18363 -0.18125,-0.313 l 0,-3.45463 c 0,-0.12937 0.0688,-0.2485 0.18125,-0.31287 l 2.98875,-1.72613"
       id="path38"
       style="fill:#83cd29;fill-opacity:1;fill-rule:evenodd;stroke:none" /></g><g
     transform="matrix(0.84421059,0,0,0.84421059,59.348342,137.16052)"
     id="g3710"><path
       d="m 138.76299,-132.36653 c 0.077,1.313 -1.786,0.968 -1.786,2.293 0,38.551 -44.719998,96.831 -89.846998,108.194 v 1.182 c 59.952998,-5.516 126.723998,-66.808 128.229998,-125.858 l -36.597,14.189 z"
       id="path243"
       style="fill:url(#linearGradient3718-8)" /><path
       d="m 122.69899,-128.59553 c 0.077,1.313 0.121,2.633 0.121,3.958 0,38.551 -30.699998,90.497 -75.826998,101.861 v 1.637 c 59.064998,-3.823 105.806998,-63.023 105.806998,-109.195 0,-2.375 -0.125,-4.729 -0.371,-7.056 l -29.73,8.795 z"
       id="path245"
       style="fill:#e96d1f" /><path
       d="m 39.068992,-132.36653 c -0.077,1.313 1.787,0.968 1.787,2.293 0,38.551 46.558,97.366 91.687998,108.729 v 1.639 c -59.956998,-5.516 -128.5639976,-67.8 -130.0739976,-126.85 l 36.5989996,14.189 z"
       id="path254"
       style="fill:url(#linearGradient3720-1)" /><path
       d="m 57.200992,-127.62353 c -0.076,1.313 -0.12,2.63 -0.12,3.957 0,38.551 30.699,90.497 75.826998,101.861 v 1.639 c -59.041998,-2.792 -105.807998,-63.023 -105.807998,-109.197 0,-2.375 0.128,-4.729 0.371,-7.056 l 29.73,8.796 z"
       id="path256"
       style="fill:#a0ce67" /><path
       d="m 27.182992,-136.97253 7.617,2.722 c -0.041,0.962 -0.066,2.254 -0.066,3.225 0,41.219 37.271,98.204 87.271998,107.12 3.245,1.088 7.538,2.077 10.932,2.931 v 1.638 c -65.251998,-5.56 -111.099998,-71.865 -105.754998,-117.636 z"
       id="path258"
       style="fill:#439639" /><path
       d="m 152.80799,-137.79553 -7.833,2.625 c 0.041,0.963 0.191,2.203 0.191,3.173 0,41.219 -37.272,98.205 -87.273998,107.12 -3.243,1.089 -7.538,2.077 -10.93,2.932 v 1.639 c 68.345998,-8.656 111.191998,-71.718 105.845998,-117.489 z"
       id="path260"
       style="fill:#d9541e" /></g></svg>