<?xml version="1.0" encoding="UTF-8" standalone="no"?>
<!-- Created with Inkscape (http://www.inkscape.org/) -->

<svg
   xmlns:dc="http://purl.org/dc/elements/1.1/"
   xmlns:cc="http://creativecommons.org/ns#"
   xmlns:rdf="http://www.w3.org/1999/02/22-rdf-syntax-ns#"
   xmlns:svg="http://www.w3.org/2000/svg"
   xmlns="http://www.w3.org/2000/svg"
   xmlns:xlink="http://www.w3.org/1999/xlink"
   version="1.1"
   width="199.80032"
   height="227.42252"
   id="svg2"
   xml:space="preserve"><metadata
     id="metadata8"><rdf:RDF><cc:Work
         rdf:about=""><dc:format>image/svg+xml</dc:format><dc:type
           rdf:resource="http://purl.org/dc/dcmitype/StillImage" /><dc:title></dc:title></cc:Work></rdf:RDF></metadata><defs
     id="defs6"><clipPath
       id="clipPath18"><path
         d="M 0,501.602 0,0 l 1863.85,0 0,501.602 -1863.85,0 z"
         id="path20" /></clipPath><linearGradient
       x1="-1073.228"
       y1="126.8516"
       x2="-1073.228"
       y2="1.2789771e-13"
       id="SVGID_2_"
       gradientUnits="userSpaceOnUse"
       gradientTransform="matrix(-1,0,0,1,-1008.1914,0)"><stop
         id="stop248"
         style="stop-color:#1b3967;stop-opacity:1"
         offset="0.011" /><stop
         id="stop250"
         style="stop-color:#13b5ea;stop-opacity:1"
         offset="0.46700001" /><stop
         id="stop252"
         style="stop-color:#002b5c;stop-opacity:1"
         offset="0.99449998" /></linearGradient><linearGradient
       x1="-1807.2036"
       y1="125.8584"
       x2="-1807.2036"
       y2="0.00048828119"
       id="SVGID_1_"
       gradientUnits="userSpaceOnUse"
       gradientTransform="translate(1915.9785,0)"><stop
         id="stop237"
         style="stop-color:#1b3967;stop-opacity:1"
         offset="0.011" /><stop
         id="stop239"
         style="stop-color:#13b5ea;stop-opacity:1"
         offset="0.46700001" /><stop
         id="stop241"
         style="stop-color:#002b5c;stop-opacity:1"
         offset="0.99449998" /></linearGradient><linearGradient
       x1="-1807.2036"
       y1="125.8584"
       x2="-1807.2036"
       y2="0.00048828119"
       id="linearGradient3277"
       xlink:href="#SVGID_1_"
       gradientUnits="userSpaceOnUse"
       gradientTransform="translate(1918.4485,-146.55553)" /><linearGradient
       x1="-1073.228"
       y1="126.8516"
       x2="-1073.228"
       y2="1.2789771e-13"
       id="linearGradient3708"
       xlink:href="#SVGID_2_"
       gradientUnits="userSpaceOnUse"
       gradientTransform="matrix(-1,0,0,1,-1005.7214,-146.55553)" /><linearGradient
       x1="-1807.2036"
       y1="125.8584"
       x2="-1807.2036"
       y2="0.00048828119"
       id="linearGradient3718"
       xlink:href="#SVGID_1_"
       gradientUnits="userSpaceOnUse"
       gradientTransform="translate(1918.4485,-146.55553)" /><linearGradient
       x1="-1073.228"
       y1="126.8516"
       x2="-1073.228"
       y2="1.2789771e-13"
       id="linearGradient3720"
       xlink:href="#SVGID_2_"
       gradientUnits="userSpaceOnUse"
       gradientTransform="matrix(-1,0,0,1,-1005.7214,-146.55553)" /><linearGradient
       x1="-1807.2036"
       y1="125.8584"
       x2="-1807.2036"
       y2="0.00048828119"
       id="linearGradient3743"
       xlink:href="#SVGID_1_"
       gradientUnits="userSpaceOnUse"
       gradientTransform="translate(1918.4485,-146.55553)" /><linearGradient
       x1="-1073.228"
       y1="126.8516"
       x2="-1073.228"
       y2="1.2789771e-13"
       id="linearGradient3745"
       xlink:href="#SVGID_2_"
       gradientUnits="userSpaceOnUse"
       gradientTransform="matrix(-1,0,0,1,-1005.7214,-146.55553)" /><linearGradient
       x1="-1073.228"
       y1="126.8516"
       x2="-1073.228"
       y2="1.2789771e-13"
       id="linearGradient3751"
       xlink:href="#SVGID_2_"
       gradientUnits="userSpaceOnUse"
       gradientTransform="matrix(-0.2538113,0,0,0.2538113,-309.89306,15.099747)" /><linearGradient
       x1="-1807.2036"
       y1="125.8584"
       x2="-1807.2036"
       y2="0.00048828119"
       id="linearGradient3755"
       xlink:href="#SVGID_1_"
       gradientUnits="userSpaceOnUse"
       gradientTransform="matrix(0.2538113,0,0,0.2538113,432.2943,15.099747)" /></defs><path
     d="M 99.875,0 C 98.01704,0 96.163916,0.475819 94.5,1.4375 L 5.375,52.875 C 2.041456,54.796221 0,58.374169 0,62.21875 l 0,102.9375 c 0,3.8473 2.043599,7.41731 5.375,9.34375 L 94.5,225.96875 c 3.333546,1.92366 7.4477,1.92366 10.78125,0 L 194.40625,174.5 c 3.32783,-1.92644 5.40625,-5.49645 5.40625,-9.34375 l 0,-102.9375 c 0,-3.850298 -2.07271,-7.422529 -5.40625,-9.34375 L 105.28125,1.4375 C 103.61733,0.475819 101.73296,0 99.875,0 z M 22.6875,67 c 17.873973,7.155313 35.828129,14.212448 54.53125,19 -1.723222,23.33396 8.154278,46.10809 23.03125,63.71875 15.62147,-17.51859 25.64853,-40.7763 23.96875,-64.53125 18.02014,-4.653278 35.67634,-11.144053 52.875,-18.1875 -0.11749,4.478126 -0.21884,8.957445 -0.78125,13.40625 -5.22301,35.54056 -30.31389,64.93572 -59.625,83.9375 4.90814,3.90051 11.84702,7.37884 18.40625,9 5.48775,0.5752 8.04596,6.71098 5.46875,11.3125 -14.20614,-0.69133 -28.09133,-4.7864 -40.71875,-11.21875 -10.819719,5.02697 -22.516537,8.23427 -34.3125,10.1875 -5.084274,0.81603 -6.824688,-5.31619 -4.71875,-9.09375 7.978112,-2.07362 15.698698,-5.18538 22.59375,-9.78125 -1.930571,-2.41163 -7.124169,-4.90467 -10.125,-7.59375 C 46.35096,136.21876 23.186079,105.60538 22.8125,70.09375 L 22.6875,67 z"
     id="path28"
     style="fill:#404137;fill-opacity:1;fill-rule:evenodd;stroke:none" /><g
     transform="matrix(0.84421059,0,0,0.84421059,24.841654,196.66846)"
     id="g3710"><path
       d="m 138.76299,-132.36653 c 0.077,1.313 -1.786,0.968 -1.786,2.293 0,38.551 -44.719998,96.831 -89.846998,108.194 v 1.182 c 59.952998,-5.516 126.723998,-66.808 128.229998,-125.858 l -36.597,14.189 z"
       id="path243"
       style="fill:url(#linearGradient3718)" /><path
       d="m 122.69899,-128.59553 c 0.077,1.313 0.121,2.633 0.121,3.958 0,38.551 -30.699998,90.497 -75.826998,101.861 v 1.637 c 59.064998,-3.823 105.806998,-63.023 105.806998,-109.195 0,-2.375 -0.125,-4.729 -0.371,-7.056 l -29.73,8.795 z"
       id="path245"
       style="fill:#e96d1f" /><path
       d="m 39.068992,-132.36653 c -0.077,1.313 1.787,0.968 1.787,2.293 0,38.551 46.558,97.366 91.687998,108.729 v 1.639 c -59.956998,-5.516 -128.5639976,-67.8 -130.0739976,-126.85 l 36.5989996,14.189 z"
       id="path254"
       style="fill:url(#linearGradient3720)" /><path
       d="m 57.200992,-127.62353 c -0.076,1.313 -0.12,2.63 -0.12,3.957 0,38.551 30.699,90.497 75.826998,101.861 v 1.639 c -59.041998,-2.792 -105.807998,-63.023 -105.807998,-109.197 0,-2.375 0.128,-4.729 0.371,-7.056 l 29.73,8.796 z"
       id="path256"
       style="fill:#a0ce67" /><path
       d="m 27.182992,-136.97253 7.617,2.722 c -0.041,0.962 -0.066,2.254 -0.066,3.225 0,41.219 37.271,98.204 87.271998,107.12 3.245,1.088 7.538,2.077 10.932,2.931 v 1.638 c -65.251998,-5.56 -111.099998,-71.865 -105.754998,-117.636 z"
       id="path258"
       style="fill:#439639" /><path
       d="m 152.80799,-137.79553 -7.833,2.625 c 0.041,0.963 0.191,2.203 0.191,3.173 0,41.219 -37.272,98.205 -87.273998,107.12 -3.243,1.089 -7.538,2.077 -10.93,2.932 v 1.639 c 68.345998,-8.656 111.191998,-71.718 105.845998,-117.489 z"
       id="path260"
       style="fill:#d9541e" /></g></svg>