<?xml version="1.0" encoding="UTF-8" standalone="no"?>
<!-- Created with Inkscape (http://www.inkscape.org/) -->

<svg
   xmlns:dc="http://purl.org/dc/elements/1.1/"
   xmlns:cc="http://creativecommons.org/ns#"
   xmlns:rdf="http://www.w3.org/1999/02/22-rdf-syntax-ns#"
   xmlns:svg="http://www.w3.org/2000/svg"
   xmlns="http://www.w3.org/2000/svg"
   xmlns:xlink="http://www.w3.org/1999/xlink"
   xmlns:sodipodi="http://sodipodi.sourceforge.net/DTD/sodipodi-0.dtd"
   xmlns:inkscape="http://www.inkscape.org/namespaces/inkscape"
   version="1.1"
   width="199.80032"
   height="227.42252"
   id="svg2"
   xml:space="preserve"
   inkscape:version="0.48.4 r9939"
   sodipodi:docname="stencil.svg"><sodipodi:namedview
     pagecolor="#ffffff"
     bordercolor="#666666"
     borderopacity="1"
     objecttolerance="10"
     gridtolerance="10"
     guidetolerance="10"
     inkscape:pageopacity="0"
     inkscape:pageshadow="2"
     inkscape:window-width="1366"
     inkscape:window-height="754"
     id="namedview20"
     showgrid="false"
     fit-margin-top="0"
     fit-margin-left="0"
     fit-margin-right="0"
     fit-margin-bottom="0"
     inkscape:zoom="1.2962764"
     inkscape:cx="98.036906"
     inkscape:cy="107.29613"
     inkscape:window-x="0"
     inkscape:window-y="14"
     inkscape:window-maximized="0"
     inkscape:current-layer="svg2" /><metadata
     id="metadata8"><rdf:RDF><cc:Work
         rdf:about=""><dc:format>image/svg+xml</dc:format><dc:type
           rdf:resource="http://purl.org/dc/dcmitype/StillImage" /></cc:Work></rdf:RDF></metadata><defs
     id="defs6"><clipPath
       id="clipPath18"><path
         d="M 0,501.602 0,0 l 1863.85,0 0,501.602 -1863.85,0 z"
         inkscape:connector-curvature="0"
         id="path20" /></clipPath><linearGradient
       id="SVGID_2_"
       gradientUnits="userSpaceOnUse"
       x1="-1073.228"
       y1="126.8516"
       x2="-1073.228"
       y2="1.2789771e-13"
       gradientTransform="matrix(-1,0,0,1,-1008.1914,0)"><stop
         offset="0.011"
         style="stop-color:#1B3967"
         id="stop248" /><stop
         offset="0.467"
         style="stop-color:#13B5EA"
         id="stop250" /><stop
         offset="0.9945"
         style="stop-color:#002B5C"
         id="stop252" /></linearGradient><linearGradient
       id="SVGID_1_"
       gradientUnits="userSpaceOnUse"
       x1="-1807.2036"
       y1="125.8584"
       x2="-1807.2036"
       y2="0.00048828119"
       gradientTransform="translate(1915.9785,0)"><stop
         offset="0.011"
         style="stop-color:#1B3967"
         id="stop237" /><stop
         offset="0.467"
         style="stop-color:#13B5EA"
         id="stop239" /><stop
         offset="0.9945"
         style="stop-color:#002B5C"
         id="stop241" /></linearGradient><linearGradient
       inkscape:collect="always"
       xlink:href="#SVGID_1_"
       id="linearGradient3718"
       gradientUnits="userSpaceOnUse"
       gradientTransform="translate(1918.4485,-146.55553)"
       x1="-1807.2036"
       y1="125.8584"
       x2="-1807.2036"
       y2="0.00048828119" /><linearGradient
       inkscape:collect="always"
       xlink:href="#SVGID_2_"
       id="linearGradient3720"
       gradientUnits="userSpaceOnUse"
       gradientTransform="matrix(-1,0,0,1,-1005.7214,-146.55553)"
       x1="-1073.228"
       y1="126.8516"
       x2="-1073.228"
       y2="1.2789771e-13" /><linearGradient
       inkscape:collect="always"
       xlink:href="#SVGID_2_"
       id="linearGradient3814"
       gradientUnits="userSpaceOnUse"
       gradientTransform="matrix(-0.84421059,0,0,0.84421059,-824.199,72.94473)"
       x1="-1073.228"
       y1="126.8516"
       x2="-1073.228"
       y2="1.2789771e-13" /><linearGradient
       inkscape:collect="always"
       xlink:href="#SVGID_1_"
       id="linearGradient3818"
       gradientUnits="userSpaceOnUse"
       gradientTransform="matrix(0.84421059,0,0,0.84421059,1644.4162,72.94473)"
       x1="-1807.2036"
       y1="125.8584"
       x2="-1807.2036"
       y2="0.00048828119" /></defs><path
     style="fill:#83cd29;fill-opacity:1;fill-rule:evenodd;stroke:none"
     d="M 99.875 0 C 98.01704 0 96.163916 0.475819 94.5 1.4375 L 5.375 52.875 C 2.041456 54.796221 0 58.374169 0 62.21875 L 0 165.15625 C 0 169.00355 2.043599 172.57356 5.375 174.5 L 94.5 225.96875 C 97.833546 227.89241 101.9477 227.89241 105.28125 225.96875 L 194.40625 174.5 C 197.73408 172.57356 199.8125 169.00355 199.8125 165.15625 L 199.8125 62.21875 C 199.8125 58.368452 197.73979 54.796221 194.40625 52.875 L 105.28125 1.4375 C 103.61733 0.475819 101.73296 0 99.875 0 z M 26.9375 72.9375 L 47.78125 81.03125 L 54.21875 83.34375 L 73.125 88.9375 C 73.06084 90.045949 73.03125 91.160982 73.03125 92.28125 C 73.03125 112.74994 83.289284 137.67155 100.375 155.75 C 117.93885 137.61028 128.53125 112.22277 128.53125 91.4375 C 128.53125 90.318921 128.5025 89.202198 128.4375 88.09375 L 147.21875 82.5625 L 153.65625 80.40625 L 153.84375 80.34375 L 172.875 72.9375 C 171.97863 108.08393 143.68881 144.16823 109.34375 164.03125 C 117.53496 170.63871 126.82929 175.68097 137.03125 178.25 L 137.03125 178.96875 C 137.04032 178.97103 137.05344 178.96647 137.0625 178.96875 L 137.0625 180.34375 C 126.6951 179.46036 116.93431 176.74628 107.90625 172.6875 C 105.19377 171.58103 102.52026 170.34664 99.84375 169.03125 C 92.539131 172.50431 85.062499 175.20503 77.59375 177 C 77.364711 177.05963 77.13611 177.0981 76.90625 177.15625 C 76.791101 177.18306 76.67764 177.22362 76.5625 177.25 C 72.650548 178.22517 68.640779 179.00682 64.5 179.53125 L 64.5 178.8125 L 64.5 177.4375 C 74.16748 175.00301 83.063098 170.35218 90.9375 164.25 C 56.472172 144.05226 27.829744 107.82954 26.9375 72.9375 z "
     id="path28" /></svg>